<?xml version="1.0" encoding="utf-8"?>
<!-- Generator: Adobe Illustrator 26.5.0, SVG Export Plug-In . SVG Version: 6.00 Build 0)  -->
<svg version="1.1" id="Layer_1" xmlns="http://www.w3.org/2000/svg" xmlns:xlink="http://www.w3.org/1999/xlink" x="0px" y="0px"
	 viewBox="0 0 423.2 131.1" style="enable-background:new 0 0 423.2 131.1;" xml:space="preserve">
<style type="text/css">
	
		.st0{clip-path:url(#SVGID_00000171687605146645444850000002553487237273846914_);fill:url(#SVGID_00000135691068946790535930000004075079890745861796_);}
	
		.st1{clip-path:url(#SVGID_00000038406062430071779390000013059038718582756520_);fill:url(#SVGID_00000029019334931274241500000015708693459567562388_);}
	
		.st2{clip-path:url(#SVGID_00000098196377719435277950000008953051000425658045_);fill:url(#SVGID_00000124124426928112319520000004792191214224935328_);}
	
		.st3{clip-path:url(#SVGID_00000126310432260141915920000013121837977610477208_);fill:url(#SVGID_00000052089073177746610490000016733350291337102727_);}
	
		.st4{clip-path:url(#SVGID_00000172413772161185532970000011043992577337538707_);fill:url(#SVGID_00000043436941312399329260000009296971879458182035_);}
	.st5{fill:#303388;stroke:#303388;stroke-width:0.5;stroke-miterlimit:10;}
	.st6{fill:#303388;}
	.st7{fill:#1F6A36;}
</style>
<g>
	<g>
		<g>
			<defs>
				<path id="SVGID_1_" d="M0.1,50.1c-1.9,25.7,18,47.6,39.5,58.2c16.8,8.3,43.4,20.9,69.2,22.8c0,0-89.5-35.4-87.7-82.8
					c0.4-10.5,5.5-36,37.2-34c0,0-17.6-7.1-33.5-2.5C12.9,15.4,1.9,25.5,0.1,50.1z"/>
			</defs>
			<clipPath id="SVGID_00000086691834552470717730000005879617174169699466_">
				<use xlink:href="#SVGID_1_"  style="overflow:visible;"/>
			</clipPath>
			
				<radialGradient id="SVGID_00000026137582212650604230000005339896799451039660_" cx="-196.112" cy="476.0238" r="0.1724" gradientTransform="matrix(273.0917 -79.4467 -99.7737 -342.9637 101100.1328 147755.1875)" gradientUnits="userSpaceOnUse">
				<stop  offset="0" style="stop-color:#4DB648"/>
				<stop  offset="0.1919" style="stop-color:#47AA46"/>
				<stop  offset="0.5028" style="stop-color:#3A9441"/>
				<stop  offset="0.8917" style="stop-color:#267439"/>
				<stop  offset="1" style="stop-color:#1F6A36"/>
			</radialGradient>
			
				<polygon style="clip-path:url(#SVGID_00000086691834552470717730000005879617174169699466_);fill:url(#SVGID_00000026137582212650604230000005339896799451039660_);" points="
				-16.8,24 70.3,-1.3 108.9,131.1 21.7,156.5 			"/>
		</g>
		<g>
			<defs>
				<path id="SVGID_00000114775152621232207870000009020301768010946999_" d="M72.7,18.8c24.6-17.4,42.3,1.4,46.3,15.2
					c8.2,28.4-23.8,83.4-23.8,83.4c22.3-21.6,49.8-61.6,38.2-91.5C123.8,1.1,110.2-2.3,98.3,1.1C84.3,5.2,72.7,18.8,72.7,18.8z"/>
			</defs>
			<clipPath id="SVGID_00000058563260611577898940000012258544944926229940_">
				<use xlink:href="#SVGID_00000114775152621232207870000009020301768010946999_"  style="overflow:visible;"/>
			</clipPath>
			
				<radialGradient id="SVGID_00000114791753721573591400000007041651528287272854_" cx="-197.521" cy="476.0015" r="0.1725" gradientTransform="matrix(212.7779 -61.9004 -77.7381 -267.2183 79141.2031 115025.2031)" gradientUnits="userSpaceOnUse">
				<stop  offset="0" style="stop-color:#4DB648"/>
				<stop  offset="0.1919" style="stop-color:#47AA46"/>
				<stop  offset="0.5028" style="stop-color:#3A9441"/>
				<stop  offset="0.8917" style="stop-color:#267439"/>
				<stop  offset="1" style="stop-color:#1F6A36"/>
			</radialGradient>
			
				<polygon style="clip-path:url(#SVGID_00000058563260611577898940000012258544944926229940_);fill:url(#SVGID_00000114791753721573591400000007041651528287272854_);" points="
				64.2,11 126.7,-7.1 157.6,99.3 95.1,117.4 			"/>
		</g>
		<g>
			<defs>
				<path id="SVGID_00000001640848748384220490000014777936819670328482_" d="M62.3,45.2c1.5,5.2,6.1,8.5,10.3,7.2
					c4.1-1.2,6.3-6.4,4.8-11.6c-1.5-5.2-6.1-8.5-10.3-7.3C63,34.8,60.8,40,62.3,45.2z"/>
			</defs>
			<clipPath id="SVGID_00000160149192272947648360000016220260707096637855_">
				<use xlink:href="#SVGID_00000001640848748384220490000014777936819670328482_"  style="overflow:visible;"/>
			</clipPath>
			
				<radialGradient id="SVGID_00000118368560953772915430000015346514875851628714_" cx="-199.5087" cy="474.4745" r="0.1724" gradientTransform="matrix(43.5584 -12.6718 -15.914 -54.7031 16310.9189 23470.1543)" gradientUnits="userSpaceOnUse">
				<stop  offset="0" style="stop-color:#4DB648"/>
				<stop  offset="0.1919" style="stop-color:#47AA46"/>
				<stop  offset="0.5028" style="stop-color:#3A9441"/>
				<stop  offset="0.8917" style="stop-color:#267439"/>
				<stop  offset="1" style="stop-color:#1F6A36"/>
			</radialGradient>
			
				<polygon style="clip-path:url(#SVGID_00000160149192272947648360000016220260707096637855_);fill:url(#SVGID_00000118368560953772915430000015346514875851628714_);" points="
				59.6,35.8 74.6,31.4 80.1,50.3 65.1,54.7 			"/>
		</g>
		<g>
			<defs>
				<path id="SVGID_00000025434151555911604240000001269515339106022834_" d="M90,25c2,13.4-5.5,27.4-6,36.3
					c-0.8,13.1,5.3,26.4,12.4,34.3c0.2,0.3,0.8,0.4,0.6,0.1c-5.1-9.1-11.2-31.9-2.8-48.8c-3.5,11-4.4,28.4,3.7,47.7
					c0.2,0.4,0.5,0.2,0.5-0.2c-2.8-17.8,7.5-30.3,4.1-46.7c-1.3-6.3-9.2-20.5-11.9-23.1c-0.1-0.1-0.2-0.1-0.3-0.1
					C90.1,24.6,89.9,24.8,90,25z"/>
			</defs>
			<clipPath id="SVGID_00000146462973048155497950000012299740291847667874_">
				<use xlink:href="#SVGID_00000025434151555911604240000001269515339106022834_"  style="overflow:visible;"/>
			</clipPath>
			
				<radialGradient id="SVGID_00000057868422102780359320000007310330838778638728_" cx="-197.9989" cy="476.081" r="0.1727" gradientTransform="matrix(119.9896 -34.9069 -43.8381 -150.6897 44721.9102 64889.2617)" gradientUnits="userSpaceOnUse">
				<stop  offset="0" style="stop-color:#4DB648"/>
				<stop  offset="0.1919" style="stop-color:#47AA46"/>
				<stop  offset="0.5028" style="stop-color:#3A9441"/>
				<stop  offset="0.8917" style="stop-color:#267439"/>
				<stop  offset="1" style="stop-color:#1F6A36"/>
			</radialGradient>
			
				<polygon style="clip-path:url(#SVGID_00000146462973048155497950000012299740291847667874_);fill:url(#SVGID_00000057868422102780359320000007310330838778638728_);" points="
				70.3,30.3 95.7,22.9 115.4,90.7 90,98.1 			"/>
		</g>
		<g>
			<defs>
				<path id="SVGID_00000111182505447047616870000014345417398306158004_" d="M30.3,33.7c-2.3,14.1,3.8,29.4,9,37.1
					C44,77.6,54.9,88.1,65,87c7.5-0.8,16.4,4.9,15.5,26.3c2.5-3.2-0.2-21-3.2-26.4c-6.5-11.6-21.8-6.8-30.5-18.1
					c-0.2-0.3-1.7-2.6-1.5-2.4c14.5,12.3,25.5,6.6,32.9,18c5.6,8.6,4.6,23.5,5.8,23.2c1-0.2,1.9-16.9,0.3-22.4
					C81.2,74,71.1,61,57.9,58.7c-7.9-1.4-23.6-3.2-27.4-25.3c0-0.1-0.1-0.1-0.1-0.1C30.4,33.3,30.3,33.5,30.3,33.7z"/>
			</defs>
			<clipPath id="SVGID_00000017505297593001343820000007423545880477202323_">
				<use xlink:href="#SVGID_00000111182505447047616870000014345417398306158004_"  style="overflow:visible;"/>
			</clipPath>
			
				<radialGradient id="SVGID_00000129885935607068653240000012792183346990048158_" cx="-196.4486" cy="476.0748" r="0.1726" gradientTransform="matrix(164.5286 -47.864 -60.1103 -206.6242 60997.2578 89038.1016)" gradientUnits="userSpaceOnUse">
				<stop  offset="0" style="stop-color:#4DB648"/>
				<stop  offset="0.1919" style="stop-color:#47AA46"/>
				<stop  offset="0.5028" style="stop-color:#3A9441"/>
				<stop  offset="0.8917" style="stop-color:#267439"/>
				<stop  offset="1" style="stop-color:#1F6A36"/>
			</radialGradient>
			
				<polygon style="clip-path:url(#SVGID_00000017505297593001343820000007423545880477202323_);fill:url(#SVGID_00000129885935607068653240000012792183346990048158_);" points="
				24.3,35.1 66.3,22.9 91.7,110.1 49.7,122.3 			"/>
		</g>
	</g>
	<g>
		<path class="st5" d="M162.5,50.9c-5.9,0-10.6-1.8-14-5.3c-3.4-3.5-5.1-8.3-5.1-14.4c0-6.1,1.7-10.9,5.1-14.4
			c3.4-3.5,8.1-5.3,14-5.3c5.9,0,10.5,1.8,13.9,5.3c3.4,3.5,5.1,8.3,5.1,14.4c0,6.1-1.7,10.9-5.1,14.4
			C173,49.2,168.3,50.9,162.5,50.9z M162.5,48.5c3.6,0,6.3-1.4,8.1-4.3c1.8-2.9,2.7-7.2,2.7-13c0-5.7-0.9-10-2.7-12.9
			c-1.8-2.9-4.5-4.3-8.1-4.3c-3.6,0-6.3,1.4-8.1,4.3c-1.8,2.9-2.7,7.1-2.7,12.9c0,5.8,0.9,10.1,2.7,13
			C156.2,47,158.9,48.5,162.5,48.5z"/>
		<path class="st5" d="M184.9,12.4h12.5l10.4,24.3l10.6-24.3h11.3v2.4l-0.5,0c-1.7,0.1-2.8,0.4-3.1,0.9c-0.3,0.5-0.5,1.8-0.5,4.1
			v22.9c0,2.3,0.2,3.6,0.5,4.1c0.3,0.5,1.4,0.8,3.1,0.9l0.5,0V50H215v-2.4l0.5,0c1.4-0.1,2.3-0.4,2.6-0.8c0.3-0.5,0.4-1.8,0.4-4.1
			V20.3l-11.7,25.5h-2.5l-11.5-27v23.9c0,2.2,0.1,3.6,0.4,4.1c0.3,0.5,1.1,0.8,2.6,0.9l0.5,0V50h-11.3v-2.4l0.5,0
			c1.7-0.1,2.7-0.4,3.1-0.9c0.3-0.5,0.5-1.8,0.5-4.1V19.8c0-2.3-0.2-3.6-0.5-4.1c-0.3-0.5-1.4-0.7-3.1-0.9l-0.5,0V12.4z"/>
		<path class="st5" d="M263,50.5l-20.8-28.5v20.6c0,2.3,0.2,3.6,0.5,4.1c0.3,0.5,1.4,0.8,3.1,0.9l0.5,0V50h-11.8v-2.4l0.5,0
			c1.7-0.1,2.7-0.4,3.1-0.9c0.3-0.5,0.5-1.8,0.5-4.1V19.8c0-2.3-0.2-3.6-0.5-4.1c-0.3-0.5-1.4-0.7-3.1-0.9l-0.5,0v-2.4h9.4
			l20.7,28.4v-21c0-2.3-0.2-3.6-0.5-4.1c-0.3-0.5-1.4-0.7-3.1-0.9l-0.5,0v-2.4h11.8v2.4l-0.5,0c-1.7,0.1-2.8,0.4-3.1,0.9
			c-0.3,0.5-0.5,1.8-0.5,4.1v30.8H263z"/>
		<path class="st6" d="M293.1,50h-16v-2.4l0.5,0c1.7-0.1,2.7-0.4,3.1-0.9c0.3-0.5,0.5-1.8,0.5-4.1V19.8c0-2.3-0.2-3.6-0.5-4.1
			c-0.3-0.5-1.4-0.7-3.1-0.9l-0.5,0v-2.4h16v2.4l-0.5,0c-1.7,0.1-2.8,0.4-3.1,0.9c-0.3,0.5-0.5,1.8-0.5,4.1v22.9
			c0,2.3,0.2,3.6,0.5,4.1c0.3,0.5,1.4,0.8,3.1,0.9l0.5,0V50z"/>
		<path class="st6" d="M154.4,79.6v11.1c0,2.3,0.2,3.6,0.5,4.1c0.3,0.5,1.4,0.8,3.1,0.9l0.5,0V98h-16v-2.4l0.5,0
			c1.7-0.1,2.7-0.4,3.1-0.9c0.3-0.5,0.5-1.8,0.5-4.1V67.8c0-2.3-0.2-3.6-0.5-4.1c-0.3-0.5-1.4-0.7-3.1-0.9l-0.5,0v-2.4h16v2.4
			l-0.5,0c-1.7,0.1-2.8,0.4-3.1,0.9c-0.3,0.5-0.5,1.8-0.5,4.1v9.1h15.5v-9.1c0-2.3-0.2-3.6-0.5-4.1c-0.3-0.5-1.4-0.7-3.1-0.9l-0.5,0
			v-2.4h16v2.4l-0.5,0c-1.7,0.1-2.8,0.4-3.1,0.9c-0.3,0.5-0.5,1.8-0.5,4.1v22.9c0,2.3,0.2,3.6,0.5,4.1c0.3,0.5,1.4,0.8,3.1,0.9
			l0.5,0V98h-16v-2.4l0.5,0c1.7-0.1,2.7-0.4,3.1-0.9c0.3-0.5,0.5-1.8,0.5-4.1V79.6H154.4z"/>
		<path class="st6" d="M209.9,96.9c-3.3,1.2-6.6,1.7-9.7,1.7c-4.8,0-8.5-1.3-11.3-4c-2.8-2.7-4.2-6.3-4.2-10.9
			c0-4.2,1.2-7.7,3.7-10.3c2.5-2.6,5.8-3.9,9.8-3.9c7.8,0,11.6,4.8,11.6,14.3v0.6h-17.4c0,3.5,0.8,6.2,2.5,7.9
			c1.6,1.8,4.1,2.6,7.4,2.6c2.2,0,4.8-0.6,7.6-1.8V96.9z M192.7,82h9.9v-0.9c0-3.4-0.3-5.7-1-7.1c-0.7-1.4-1.8-2.1-3.5-2.1
			c-1.8,0-3.1,0.8-4,2.5C193.1,76.1,192.7,78.6,192.7,82z"/>
		<path class="st6" d="M230.8,94.8c-1.3,1.3-2.7,2.3-4.1,2.9c-1.4,0.6-2.8,1-4.3,1c-2.5,0-4.5-0.8-6.1-2.3c-1.6-1.5-2.4-3.5-2.4-5.8
			c0-2.7,1-4.9,3.1-6.5c1.2-1,2.7-1.7,4.4-2c1.7-0.4,4.1-0.6,7.2-0.6h1.3V78c0-2.4-0.3-4-0.9-4.9c-0.6-0.9-1.7-1.3-3.3-1.3
			c-2,0-3.5,0.5-4.5,1.6c-0.3,0.3-0.6,1.5-0.7,3.4l0,0.5h-4.1v-5.6c3.2-1.5,6.6-2.2,10.1-2.2c3.5,0,6.2,0.7,8.1,2.2
			c1.9,1.5,2.8,3.5,2.8,6.3v12.2c0,2.2,0.2,3.6,0.5,4.4c0.3,0.8,0.9,1.2,1.8,1.2c0.3,0,0.5-0.1,0.9-0.2l0.3,2.4
			c-1.3,0.4-2.6,0.6-3.8,0.6c-1.4,0-2.6-0.3-3.6-1C232.3,97,231.5,96.1,230.8,94.8z M229.8,92.9v-9.2h-1c-2.5,0-4.4,0.5-5.6,1.5
			c-1.3,1-1.9,2.5-1.9,4.5c0,1.5,0.4,2.7,1.2,3.6c0.8,0.9,1.9,1.3,3.2,1.3c0.8,0,1.5-0.1,2.2-0.4C228.5,93.9,229.1,93.5,229.8,92.9z
			"/>
		<path class="st6" d="M254.3,57.9v32.7c0,2.3,0.2,3.6,0.5,4.1c0.3,0.5,1.4,0.8,3.1,0.9l0.5,0V98h-15.6v-2.4l0.5,0
			c1.7-0.1,2.7-0.4,3.1-0.9c0.3-0.5,0.5-1.8,0.5-4.1V65.3c0-2.3-0.2-3.6-0.5-4.1c-0.3-0.5-1.4-0.8-3.1-0.9l-0.5-0.1v-2.4H254.3z"/>
		<path class="st6" d="M278.1,97.8c-1.6,0.6-3.1,0.9-4.6,0.9c-3.1,0-5.5-0.8-7-2.3c-1.6-1.5-2.3-3.9-2.3-7V72.6h-3.5v-2.5h3.5v-4.7
			l7.5-1.3v6h6.2v2.5h-6.2v16.9c0,2.5,0.2,4.1,0.7,4.9c0.5,0.8,1.5,1.2,3,1.2c0.8,0,1.8-0.2,2.7-0.6V97.8z"/>
		<path class="st6" d="M292.1,75.4c1.2-2,2.5-3.4,4.1-4.4c1.6-1,3.4-1.5,5.4-1.5c2.5,0,4.5,0.8,5.9,2.3c1.4,1.6,2.1,3.7,2.1,6.5
			v12.4c0,2.3,0.2,3.6,0.5,4.1c0.3,0.5,1.4,0.8,3.1,0.9l0.5,0V98H298v-2.4l0.5,0c1.7-0.1,2.8-0.4,3.1-0.9c0.3-0.5,0.5-1.8,0.5-4.1
			V79.1c0-2-0.2-3.3-0.7-4c-0.5-0.7-1.4-1.1-2.7-1.1c-1.1,0-2.3,0.3-3.4,1c-1.1,0.7-2.2,1.7-3.3,3.1v12.4c0,2.3,0.2,3.6,0.5,4.1
			c0.3,0.5,1.4,0.8,3.1,0.9l0.5,0V98h-15.6v-2.4l0.5,0c1.7-0.1,2.7-0.4,3.1-0.9c0.3-0.5,0.5-1.8,0.5-4.1V65.3c0-2.3-0.2-3.6-0.5-4.1
			c-0.3-0.5-1.4-0.8-3.1-0.9l-0.5-0.1v-2.4h11.6V75.4z"/>
		<path class="st6" d="M339.6,97.3c-2.9,0.9-5.7,1.3-8.3,1.3c-4.9,0-8.7-1.3-11.5-4c-2.8-2.6-4.2-6.3-4.2-10.9c0-4.4,1.3-7.9,4-10.4
			c2.6-2.5,6.3-3.8,10.9-3.8c2.9,0,5.9,0.4,9,1.3v7.2h-3.6l0-0.5c-0.1-2.1-0.4-3.4-0.8-3.9c-0.9-1.2-2.4-1.8-4.4-1.8
			c-2.4,0-4.1,1-5.3,2.9c-1.2,1.9-1.8,4.8-1.8,8.7c0,3.9,0.8,6.9,2.4,8.9s3.9,3,7.1,3c1.9,0,4.1-0.5,6.5-1.4V97.3z"/>
		<path class="st6" d="M360.5,94.8c-1.3,1.3-2.7,2.3-4.1,2.9c-1.4,0.6-2.8,1-4.3,1c-2.5,0-4.5-0.8-6.1-2.3c-1.6-1.5-2.4-3.5-2.4-5.8
			c0-2.7,1-4.9,3.1-6.5c1.2-1,2.7-1.7,4.4-2c1.7-0.4,4.1-0.6,7.2-0.6h1.3V78c0-2.4-0.3-4-0.9-4.9c-0.6-0.9-1.7-1.3-3.3-1.3
			c-2,0-3.5,0.5-4.5,1.6c-0.3,0.3-0.6,1.5-0.7,3.4l0,0.5H346v-5.6c3.2-1.5,6.6-2.2,10.1-2.2c3.5,0,6.2,0.7,8.1,2.2
			c1.9,1.5,2.8,3.5,2.8,6.3v12.2c0,2.2,0.2,3.6,0.5,4.4c0.3,0.8,0.9,1.2,1.8,1.2c0.3,0,0.5-0.1,0.9-0.2l0.3,2.4
			c-1.3,0.4-2.6,0.6-3.8,0.6c-1.4,0-2.6-0.3-3.6-1C362,97,361.2,96.1,360.5,94.8z M359.5,92.9v-9.2h-1c-2.5,0-4.4,0.5-5.6,1.5
			c-1.3,1-1.9,2.5-1.9,4.5c0,1.5,0.4,2.7,1.2,3.6c0.8,0.9,1.9,1.3,3.2,1.3c0.8,0,1.5-0.1,2.2-0.4C358.2,93.9,358.8,93.5,359.5,92.9z
			"/>
		<path class="st6" d="M384,78.1v12.5c0,2.3,0.2,3.7,0.6,4.1c0.4,0.4,1.6,0.7,3.7,0.9l0.5,0V98h-16.3v-2.4l0.5,0
			c1.7-0.1,2.7-0.4,3.1-0.9c0.3-0.5,0.5-1.8,0.5-4.1V77.5c0-2.3-0.2-3.6-0.5-4.1c-0.3-0.5-1.4-0.8-3.1-0.9l-0.5,0v-2.4H384v5.3
			c2.3-3.9,5.2-5.9,8.9-5.9c0.4,0,0.9,0.1,1.5,0.2v8.9h-3.5l0-0.5c-0.1-1.9-0.3-2.9-0.4-3.2c-0.1-0.2-0.5-0.4-1.3-0.4
			C387.1,74.6,385.4,75.7,384,78.1z"/>
		<path class="st6" d="M422.8,96.9c-3.3,1.2-6.6,1.7-9.7,1.7c-4.8,0-8.5-1.3-11.3-4c-2.8-2.7-4.2-6.3-4.2-10.9
			c0-4.2,1.2-7.7,3.7-10.3c2.5-2.6,5.8-3.9,9.8-3.9c7.8,0,11.6,4.8,11.6,14.3v0.6h-17.4c0,3.5,0.8,6.2,2.5,7.9
			c1.6,1.8,4.1,2.6,7.4,2.6c2.2,0,4.8-0.6,7.6-1.8V96.9z M405.5,82h9.9v-0.9c0-3.4-0.3-5.7-1-7.1c-0.7-1.4-1.8-2.1-3.5-2.1
			c-1.8,0-3.1,0.8-4,2.5C406,76.1,405.5,78.6,405.5,82z"/>
	</g>
	<g>
		<path class="st7" d="M155.2,125.5l-9.2-12.6v9.1c0,1,0.1,1.6,0.2,1.8c0.1,0.2,0.6,0.3,1.4,0.4l0.2,0v1h-5.2v-1l0.2,0
			c0.8-0.1,1.2-0.2,1.4-0.4c0.2-0.2,0.2-0.8,0.2-1.8v-10.1c0-1-0.1-1.6-0.2-1.8c-0.1-0.2-0.6-0.3-1.4-0.4l-0.2,0v-1h4.2l9.2,12.5
			v-9.3c0-1-0.1-1.6-0.2-1.8c-0.1-0.2-0.6-0.3-1.4-0.4l-0.2,0v-1h5.2v1l-0.2,0c-0.8,0.1-1.2,0.2-1.4,0.4s-0.2,0.8-0.2,1.8v13.6
			H155.2z"/>
		<path class="st7" d="M168.3,123.8c-0.6,0.6-1.2,1-1.8,1.3c-0.6,0.3-1.2,0.4-1.9,0.4c-1.1,0-2-0.3-2.7-1c-0.7-0.7-1.1-1.5-1.1-2.6
			c0-1.2,0.5-2.2,1.4-2.9c0.5-0.4,1.2-0.7,1.9-0.9c0.7-0.2,1.8-0.3,3.2-0.3h0.6v-1.5c0-1.1-0.1-1.8-0.4-2.2s-0.8-0.6-1.5-0.6
			c-0.9,0-1.5,0.2-2,0.7c-0.1,0.2-0.2,0.7-0.3,1.5l0,0.2h-1.8v-2.5c1.4-0.7,2.9-1,4.5-1c1.6,0,2.8,0.3,3.6,1
			c0.8,0.6,1.2,1.6,1.2,2.8v5.4c0,1,0.1,1.6,0.2,2c0.1,0.4,0.4,0.5,0.8,0.5c0.1,0,0.2,0,0.4-0.1l0.1,1c-0.6,0.2-1.1,0.3-1.7,0.3
			c-0.6,0-1.1-0.1-1.6-0.4S168.6,124.4,168.3,123.8z M167.9,123v-4.1h-0.4c-1.1,0-1.9,0.2-2.5,0.7c-0.6,0.4-0.8,1.1-0.8,2
			c0,0.7,0.2,1.2,0.5,1.6c0.4,0.4,0.8,0.6,1.4,0.6c0.3,0,0.7-0.1,1-0.2S167.6,123.2,167.9,123z"/>
		<path class="st7" d="M181.7,125.1c-0.7,0.3-1.4,0.4-2,0.4c-1.4,0-2.4-0.3-3.1-1c-0.7-0.7-1-1.7-1-3.1V114H174v-1.1h1.5v-2.1
			l3.3-0.6v2.7h2.7v1.1h-2.7v7.5c0,1.1,0.1,1.8,0.3,2.2c0.2,0.4,0.7,0.5,1.3,0.5c0.4,0,0.8-0.1,1.2-0.3V125.1z"/>
		<path class="st7" d="M192,125.2v-2.3c-0.5,0.9-1.1,1.5-1.8,2s-1.5,0.7-2.4,0.7c-1.1,0-2-0.3-2.6-1s-0.9-1.6-0.9-2.9v-5.5
			c0-1-0.1-1.6-0.2-1.8c-0.1-0.2-0.6-0.3-1.4-0.4l-0.2,0v-1h5.1v8.3c0,0.9,0.1,1.5,0.3,1.8c0.2,0.3,0.6,0.5,1.2,0.5
			c0.5,0,1-0.2,1.5-0.5c0.5-0.3,0.9-0.8,1.4-1.4v-5.5c0-1-0.1-1.6-0.2-1.8c-0.1-0.2-0.6-0.3-1.4-0.4l-0.2,0v-1h5.1v9.1
			c0,1,0.1,1.6,0.2,1.8c0.2,0.2,0.6,0.3,1.4,0.4l0.2,0v1H192z"/>
		<path class="st7" d="M203.2,116.4v5.5c0,1,0.1,1.6,0.2,1.8c0.2,0.2,0.7,0.3,1.6,0.4l0.2,0v1H198v-1l0.2,0c0.8-0.1,1.2-0.2,1.4-0.4
			c0.2-0.2,0.2-0.8,0.2-1.8v-5.8c0-1-0.1-1.6-0.2-1.8c-0.1-0.2-0.6-0.3-1.4-0.4l-0.2,0v-1h5.1v2.3c1-1.7,2.3-2.6,3.9-2.6
			c0.2,0,0.4,0,0.7,0.1v3.9h-1.5l0-0.2c-0.1-0.8-0.1-1.3-0.2-1.4c0-0.1-0.2-0.2-0.6-0.2C204.5,114.9,203.7,115.4,203.2,116.4z"/>
		<path class="st7" d="M215.6,125.5c-2,0-3.6-0.6-4.7-1.7c-1.1-1.1-1.7-2.7-1.7-4.7s0.6-3.6,1.7-4.7c1.1-1.1,2.7-1.7,4.7-1.7
			c2,0,3.5,0.6,4.7,1.7c1.1,1.1,1.7,2.7,1.7,4.7s-0.6,3.6-1.7,4.7C219.2,125,217.6,125.5,215.6,125.5z M215.6,124.3
			c0.9,0,1.6-0.4,2-1.3c0.5-0.9,0.7-2.2,0.7-3.9c0-1.8-0.2-3.1-0.7-4s-1.1-1.3-2-1.3s-1.6,0.4-2.1,1.3c-0.5,0.9-0.7,2.2-0.7,4
			c0,1.8,0.2,3.1,0.7,3.9C214,123.9,214.7,124.3,215.6,124.3z"/>
		<path class="st7" d="M228.3,124v2.4c0,1,0.1,1.6,0.2,1.8c0.2,0.2,0.6,0.3,1.4,0.4l0.2,0v1h-6.9v-1l0.2,0c0.8-0.1,1.2-0.2,1.4-0.4
			c0.1-0.2,0.2-0.8,0.2-1.8v-10.3c0-1-0.1-1.6-0.2-1.8c-0.2-0.2-0.6-0.3-1.4-0.4l-0.2,0v-1h5.1v2.3c0.5-0.9,1-1.5,1.7-2
			c0.7-0.4,1.5-0.7,2.4-0.7c1.4,0,2.5,0.6,3.3,1.7s1.2,2.6,1.2,4.5c0,2.1-0.5,3.7-1.4,4.9c-0.9,1.2-2.2,1.8-3.7,1.8
			c-0.7,0-1.3-0.1-1.9-0.4C229.4,124.9,228.8,124.5,228.3,124z M228.3,122.8c0.4,0.4,0.9,0.7,1.3,0.9c0.4,0.2,0.8,0.3,1.2,0.3
			c0.9,0,1.6-0.4,2-1.2c0.5-0.8,0.7-2,0.7-3.6c0-1.5-0.2-2.5-0.6-3.3c-0.4-0.7-1-1.1-1.8-1.1c-0.5,0-0.9,0.1-1.4,0.4
			s-0.9,0.7-1.3,1.2V122.8z"/>
		<path class="st7" d="M246.1,123.8c-0.6,0.6-1.2,1-1.8,1.3c-0.6,0.3-1.2,0.4-1.9,0.4c-1.1,0-2-0.3-2.7-1c-0.7-0.7-1.1-1.5-1.1-2.6
			c0-1.2,0.5-2.2,1.4-2.9c0.5-0.4,1.2-0.7,1.9-0.9c0.7-0.2,1.8-0.3,3.2-0.3h0.6v-1.5c0-1.1-0.1-1.8-0.4-2.2s-0.8-0.6-1.5-0.6
			c-0.9,0-1.5,0.2-2,0.7c-0.1,0.2-0.2,0.7-0.3,1.5l0,0.2h-1.8v-2.5c1.4-0.7,2.9-1,4.5-1c1.6,0,2.8,0.3,3.6,1
			c0.8,0.6,1.2,1.6,1.2,2.8v5.4c0,1,0.1,1.6,0.2,2c0.1,0.4,0.4,0.5,0.8,0.5c0.1,0,0.2,0,0.4-0.1l0.1,1c-0.6,0.2-1.1,0.3-1.7,0.3
			c-0.6,0-1.1-0.1-1.6-0.4S246.3,124.4,246.1,123.8z M245.6,123v-4.1h-0.4c-1.1,0-1.9,0.2-2.5,0.7c-0.6,0.4-0.8,1.1-0.8,2
			c0,0.7,0.2,1.2,0.5,1.6c0.4,0.4,0.8,0.6,1.4,0.6c0.3,0,0.7-0.1,1-0.2S245.3,123.2,245.6,123z"/>
		<path class="st7" d="M259.4,125.1c-0.7,0.3-1.4,0.4-2,0.4c-1.4,0-2.4-0.3-3.1-1c-0.7-0.7-1-1.7-1-3.1V114h-1.5v-1.1h1.5v-2.1
			l3.3-0.6v2.7h2.7v1.1h-2.7v7.5c0,1.1,0.1,1.8,0.3,2.2c0.2,0.4,0.7,0.5,1.3,0.5c0.4,0,0.8-0.1,1.2-0.3V125.1z"/>
		<path class="st7" d="M265.6,115.2c0.5-0.9,1.1-1.5,1.8-2c0.7-0.4,1.5-0.7,2.4-0.7c1.1,0,2,0.3,2.6,1c0.6,0.7,0.9,1.6,0.9,2.9v5.5
			c0,1,0.1,1.6,0.2,1.8c0.2,0.2,0.6,0.3,1.4,0.4l0.2,0v1h-6.9v-1l0.2,0c0.8-0.1,1.2-0.2,1.4-0.4c0.1-0.2,0.2-0.8,0.2-1.8v-5.1
			c0-0.9-0.1-1.5-0.3-1.8c-0.2-0.3-0.6-0.5-1.2-0.5c-0.5,0-1,0.2-1.5,0.5c-0.5,0.3-1,0.8-1.5,1.4v5.5c0,1,0.1,1.6,0.2,1.8
			c0.2,0.2,0.6,0.3,1.4,0.4l0.2,0v1h-6.9v-1l0.2,0c0.8-0.1,1.2-0.2,1.4-0.4c0.2-0.2,0.2-0.8,0.2-1.8v-11.2c0-1-0.1-1.6-0.2-1.8
			c-0.1-0.2-0.6-0.3-1.4-0.4l-0.2,0v-1h5.1V115.2z"/>
		<path class="st7" d="M277.7,129.7l4.2-4.6l-4.1-9c-0.5-1.1-0.9-1.7-1-1.8c-0.2-0.2-0.6-0.3-1.1-0.3l-0.2,0v-1h7v1h-0.2
			c-0.9,0-1.4,0.1-1.4,0.4c0,0.2,0.2,0.8,0.7,1.8l2.3,5.1l2.7-5.1c0.5-1,0.8-1.6,0.8-1.9s-0.4-0.3-1.1-0.3H286v-1h4.4v1l-0.2,0
			c-0.6,0-1,0.1-1.2,0.3c-0.2,0.2-0.5,0.8-1.1,1.9l-7.2,13.5H277.7z"/>
		<path class="st7" d="M308.8,125.2l-0.9-0.9c-1.3,0.9-2.7,1.4-4.2,1.4c-1.8,0-3.2-0.5-4.4-1.5c-1.2-1-1.8-2.3-1.8-3.8
			c0-2.3,1.4-4,4.3-5c-0.9-1.4-1.3-2.6-1.3-3.5c0-1,0.4-1.9,1.3-2.6c0.8-0.7,1.9-1,3.2-1c1.4,0,2.4,0.3,3.3,0.9
			c0.8,0.6,1.2,1.5,1.2,2.5c0,1.8-1.3,3.1-3.9,4c1.5,2.4,2.8,4.3,4,5.8c0.5-0.9,0.8-1.9,0.8-3.1c0-0.6-0.1-1-0.2-1.1
			c-0.1-0.1-0.5-0.2-1.2-0.3l-0.2,0v-1h5.4v1l-0.2,0c-0.7,0-1.1,0.1-1.2,0.2c-0.1,0.1-0.2,0.5-0.3,1.1c-0.1,1.2-0.9,2.5-2.2,4
			c0.8,1,1.3,1.5,1.5,1.6s0.8,0.2,1.7,0.3l0.2,0v1H308.8z M307.3,123.5c-1.7-1.9-3.3-4.3-5-7.3c-1.1,0.9-1.7,2-1.7,3.4
			c0,1.3,0.4,2.4,1.2,3.3c0.8,0.9,1.8,1.3,3.1,1.3C305.8,124.2,306.5,123.9,307.3,123.5z M305,114.8c1.1-1,1.6-2,1.6-3.3
			c0-0.8-0.1-1.3-0.4-1.7c-0.2-0.4-0.6-0.6-1.1-0.6c-0.5,0-0.9,0.2-1.2,0.5c-0.3,0.3-0.4,0.8-0.4,1.4
			C303.6,112.1,304.1,113.3,305,114.8z"/>
		<path class="st7" d="M326.7,125.5l-3.8-13.6c-0.3-1.1-0.6-1.8-0.7-1.9c-0.1-0.2-0.5-0.3-1.1-0.3l-0.2,0v-1h6.5v1h-0.2
			c-0.9,0-1.3,0.1-1.3,0.4c0,0.3,0.1,0.9,0.4,1.8l2.2,7.7l3.4-10.8h1.3l3.7,11.4c0,0,2.8-8.8,2.9-9.3c0.1-0.4,0.2-0.7,0.2-0.8
			c0-0.3-0.4-0.5-1.2-0.5h-0.2v-1h4.4v1l-0.2,0c-0.2,0-0.4,0-0.5,0c-0.4,0-0.6,0.1-0.7,0.2c-0.1,0.1-0.3,0.8-0.7,2l-4.3,13.5h-1.1
			l-3.7-11.5l-3.7,11.5H326.7z"/>
		<path class="st7" d="M354.8,124.8c-1.5,0.5-2.9,0.8-4.3,0.8c-2.1,0-3.8-0.6-5-1.8c-1.2-1.2-1.8-2.8-1.8-4.8c0-1.9,0.6-3.4,1.7-4.6
			c1.1-1.2,2.5-1.7,4.3-1.7c3.4,0,5.1,2.1,5.1,6.3v0.2h-7.7c0,1.6,0.4,2.7,1.1,3.5s1.8,1.2,3.3,1.2c1,0,2.1-0.3,3.3-0.8V124.8z
			 M347.1,118.1h4.4v-0.4c0-1.5-0.2-2.5-0.5-3.2c-0.3-0.6-0.8-0.9-1.6-0.9c-0.8,0-1.4,0.4-1.8,1.1
			C347.3,115.5,347.1,116.7,347.1,118.1z"/>
		<path class="st7" d="M361.5,107.5V122c0,1,0.1,1.6,0.2,1.8c0.2,0.2,0.6,0.3,1.4,0.4l0.2,0v1h-6.9v-1l0.2,0
			c0.8-0.1,1.2-0.2,1.4-0.4c0.2-0.2,0.2-0.8,0.2-1.8v-11.2c0-1-0.1-1.6-0.2-1.8c-0.1-0.2-0.6-0.3-1.4-0.4l-0.2,0v-1H361.5z"/>
		<path class="st7" d="M369.2,107.5V122c0,1,0.1,1.6,0.2,1.8c0.2,0.2,0.6,0.3,1.4,0.4l0.2,0v1h-6.9v-1l0.2,0
			c0.8-0.1,1.2-0.2,1.4-0.4c0.2-0.2,0.2-0.8,0.2-1.8v-11.2c0-1-0.1-1.6-0.2-1.8c-0.1-0.2-0.6-0.3-1.4-0.4l-0.2,0v-1H369.2z"/>
		<path class="st7" d="M376.8,115.2c0.5-0.9,1.1-1.5,1.8-2c0.7-0.4,1.5-0.7,2.4-0.7c1.1,0,2,0.3,2.6,1c0.6,0.7,0.9,1.6,0.9,2.9v5.5
			c0,1,0.1,1.6,0.2,1.8c0.2,0.2,0.6,0.3,1.4,0.4l0.2,0v1h-6.9v-1l0.2,0c0.8-0.1,1.2-0.2,1.4-0.4c0.1-0.2,0.2-0.8,0.2-1.8v-5.1
			c0-0.9-0.1-1.5-0.3-1.8c-0.2-0.3-0.6-0.5-1.2-0.5c-0.5,0-1,0.2-1.5,0.5c-0.5,0.3-1,0.8-1.5,1.4v5.5c0,1,0.1,1.6,0.2,1.8
			c0.2,0.2,0.6,0.3,1.4,0.4l0.2,0v1h-6.9v-1l0.2,0c0.8-0.1,1.2-0.2,1.4-0.4c0.2-0.2,0.2-0.8,0.2-1.8v-5.8c0-1-0.1-1.6-0.2-1.8
			c-0.1-0.2-0.6-0.3-1.4-0.4l-0.2,0v-1h5.1V115.2z"/>
		<path class="st7" d="M398.4,124.8c-1.5,0.5-2.9,0.8-4.3,0.8c-2.1,0-3.8-0.6-5-1.8c-1.2-1.2-1.8-2.8-1.8-4.8c0-1.9,0.6-3.4,1.7-4.6
			c1.1-1.2,2.5-1.7,4.3-1.7c3.4,0,5.1,2.1,5.1,6.3v0.2h-7.7c0,1.6,0.4,2.7,1.1,3.5s1.8,1.2,3.3,1.2c1,0,2.1-0.3,3.3-0.8V124.8z
			 M390.8,118.1h4.4v-0.4c0-1.5-0.2-2.5-0.5-3.2c-0.3-0.6-0.8-0.9-1.6-0.9c-0.8,0-1.4,0.4-1.8,1.1
			C391,115.5,390.8,116.7,390.8,118.1z"/>
		<path class="st7" d="M400.9,124.7v-3.2h1.5l0,0.2c0,0.9,0.2,1.5,0.4,1.8c0.6,0.7,1.5,1,2.7,1c0.6,0,1.1-0.2,1.4-0.6
			c0.4-0.4,0.6-0.8,0.6-1.4c0-0.8-0.7-1.5-2.1-2.1l-1-0.4c-2.4-0.9-3.5-2.2-3.5-3.8c0-1.1,0.5-2,1.4-2.7c0.9-0.7,2.1-1,3.7-1
			c1.2,0,2.5,0.2,3.8,0.6v3h-1.5l0-0.8c0-1.2-0.7-1.7-2-1.7c-0.6,0-1.1,0.2-1.5,0.6c-0.4,0.4-0.6,0.8-0.6,1.4c0,0.5,0.2,0.8,0.5,1.1
			c0.3,0.3,0.9,0.6,1.9,0.9l1,0.4c2.3,0.9,3.4,2.1,3.4,3.5c0,1.1-0.5,2.1-1.5,2.8s-2.2,1.1-3.7,1.1
			C403.9,125.5,402.3,125.2,400.9,124.7z"/>
		<path class="st7" d="M413.2,124.7v-3.2h1.5l0,0.2c0,0.9,0.2,1.5,0.4,1.8c0.6,0.7,1.5,1,2.7,1c0.6,0,1.1-0.2,1.4-0.6
			c0.4-0.4,0.6-0.8,0.6-1.4c0-0.8-0.7-1.5-2.1-2.1l-1-0.4c-2.4-0.9-3.5-2.2-3.5-3.8c0-1.1,0.5-2,1.4-2.7c0.9-0.7,2.1-1,3.7-1
			c1.2,0,2.5,0.2,3.8,0.6v3h-1.5l0-0.8c0-1.2-0.7-1.7-2-1.7c-0.6,0-1.1,0.2-1.5,0.6c-0.4,0.4-0.6,0.8-0.6,1.4c0,0.5,0.2,0.8,0.5,1.1
			c0.3,0.3,0.9,0.6,1.9,0.9l1,0.4c2.3,0.9,3.4,2.1,3.4,3.5c0,1.1-0.5,2.1-1.5,2.8s-2.2,1.1-3.7,1.1
			C416.1,125.5,414.5,125.2,413.2,124.7z"/>
	</g>
</g>
</svg>
